<svg xmlns="http://www.w3.org/2000/svg" xmlns:xlink="http://www.w3.org/1999/xlink" id="Capa_1" x="0px" y="0px" width="110px" height="100px" viewBox="0 0 110 100" xml:space="preserve"><g>	<path fill="#030303" d="M42.936,58.79c0,7.282,0.024,14.565-0.01,21.847c-0.017,3.632-2.596,6.118-6.041,5.945  c-3.11-0.156-5.36-2.585-5.368-5.874c-0.018-7.43-0.006-14.86-0.006-22.29c0-6.84,0.001-13.679-0.001-20.519  c0-1.031,0.004-2.07-0.305-3.065c-0.85-2.736-3.445-4.3-6.464-3.919c-2.664,0.336-4.765,2.652-4.871,5.463  c-0.063,1.671-0.016,3.346-0.016,5.018c0,13.089,0.001,26.177-0.001,39.266c0,2.497-1.068,4.403-3.357,5.419  c-2.141,0.951-4.242,0.683-6.079-0.842c-1.364-1.133-2.026-2.654-2.027-4.409C8.373,66.07,8.363,51.308,8.392,36.547  c0.007-3.451,2.374-5.754,5.859-5.883c3.274-0.121,5.43-2.255,5.646-5.587c0.216-3.332,2.604-5.68,5.78-5.682  c3.136-0.003,5.516,2.302,5.729,5.547c0.224,3.416,2.477,5.681,5.696,5.723c3.331,0.043,5.633-2.104,5.908-5.648  c0.189-2.438,1.28-4.224,3.524-5.171c2.122-0.895,4.148-0.56,5.936,0.913c1.19,0.979,1.869,2.247,1.982,3.804  c0.289,3.983,2.185,5.879,6.095,6.104c3.123,0.179,5.415,2.543,5.419,5.671c0.015,10.136,0.015,20.273,0,30.409  c-0.004,3.165-2.403,5.631-5.525,5.754c-2.9,0.115-5.453-2.157-5.791-5.182c-0.082-0.73-0.099-1.471-0.1-2.207  c-0.006-9.448,0.005-18.895-0.01-28.343c-0.005-2.899-1.703-5.121-4.329-5.774c-2.59-0.645-5.275,0.512-6.555,2.828  c-0.562,1.017-0.727,2.117-0.725,3.268C42.941,44.323,42.936,51.557,42.936,58.79z"></path>	<path fill="#010101" d="M86.886,56.943c0,4.329,0.009,8.659-0.003,12.988c-0.008,2.898-1.349,4.809-4.059,5.849  c-3.183,1.221-4.522,3.819-3.693,7.168c0.694,2.801-0.356,5.424-2.69,6.718c-2.299,1.275-5.082,0.899-6.927-0.935  c-1.824-1.813-2.206-4.64-0.939-6.93c0.725-1.309,1.842-2.135,3.217-2.668c3.308-1.283,4.637-3.801,3.783-7.241  c-0.157-0.634-0.206-1.255-0.206-1.894c0-8.659-0.004-17.317,0.002-25.976c0.002-3.445,2.437-5.993,5.723-6.014  c3.282-0.022,5.785,2.539,5.792,5.949C86.893,48.285,86.886,52.614,86.886,56.943z"></path>	<path fill="#030303" d="M96.992,15.806c-3.572,0-6.819-0.064-10.062,0.032c-1.273,0.038-1.595-0.38-1.498-1.57  c0.104-1.271,0.053-2.557,0.011-3.835C85.423,9.784,85.66,9.588,86.29,9.59c6.001,0.016,12.003,0.021,18.004-0.005  c0.768-0.003,0.886,0.329,0.865,0.976c-0.038,1.13-0.049,2.264,0.004,3.393c0.032,0.692-0.205,1.215-0.618,1.739  c-1.459,1.853-2.871,3.743-4.339,5.589c-0.467,0.587-0.406,0.779,0.296,1.124c4.874,2.397,6.615,5.89,5.589,11.037  c-0.82,4.116-4.706,7.271-9.363,7.644c-0.696,0.056-1.056-0.108-1.311-0.81c-0.687-1.887-1.471-3.738-2.26-5.712  c1.181,0.079,2.272,0.304,3.373,0.059c2.17-0.484,3.38-1.883,3.297-3.882c-0.079-1.889-1.45-3.702-3.443-3.528  c-2.678,0.233-3.508-1.461-4.622-3.158c-0.395-0.602-0.375-0.972,0.057-1.52C93.512,20.389,95.156,18.204,96.992,15.806z"></path>	<path fill="#030303" d="M75.367,28.679c-0.006-3.236,2.438-5.722,5.642-5.741c3.189-0.018,5.772,2.473,5.829,5.621  c0.058,3.175-2.604,5.868-5.784,5.851C77.871,34.393,75.373,31.875,75.367,28.679z"></path></g></svg>